<?xml version="1.0" encoding="UTF-8" standalone="no"?>
<!-- Created with Inkscape (http://www.inkscape.org/) -->

<svg
   xmlns:dc="http://purl.org/dc/elements/1.1/"
   xmlns:cc="http://creativecommons.org/ns#"
   xmlns:rdf="http://www.w3.org/1999/02/22-rdf-syntax-ns#"
   xmlns:svg="http://www.w3.org/2000/svg"
   xmlns="http://www.w3.org/2000/svg"
   xmlns:sodipodi="http://sodipodi.sourceforge.net/DTD/sodipodi-0.dtd"
   xmlns:inkscape="http://www.inkscape.org/namespaces/inkscape"
   width="64"
   height="64"
   viewBox="0 0 17.197916 17.197917"
   version="1.1"
   id="svg8"
   inkscape:version="0.92.4 (unknown)"
   sodipodi:docname="github_outline.svg">
  <defs
     id="defs2" />
  <sodipodi:namedview
     id="base"
     pagecolor="#ffffff"
     bordercolor="#666666"
     borderopacity="1.0"
     inkscape:pageopacity="0.0"
     inkscape:pageshadow="2"
     inkscape:zoom="3.959798"
     inkscape:cx="37.625876"
     inkscape:cy="27.50504"
     inkscape:document-units="mm"
     inkscape:current-layer="layer1"
     showgrid="false"
     units="px"
     inkscape:window-width="1366"
     inkscape:window-height="703"
     inkscape:window-x="0"
     inkscape:window-y="0"
     inkscape:window-maximized="1" />
  <metadata
     id="metadata5">
    <rdf:RDF>
      <cc:Work
         rdf:about="">
        <dc:format>image/svg+xml</dc:format>
        <dc:type
           rdf:resource="http://purl.org/dc/dcmitype/StillImage" />
        <dc:title></dc:title>
      </cc:Work>
    </rdf:RDF>
  </metadata>
  <g
     inkscape:label="Layer 1"
     inkscape:groupmode="layer"
     id="layer1"
     transform="translate(0,-279.80207)">
    <path
       d="m 8.5992758,279.98921 c -4.6752782,0 -8.46591815,3.82583 -8.46591815,8.54555 0,3.77547 2.42573915,6.97809 5.79017265,8.10858 0.4236075,0.0782 0.5779775,-0.18571 0.5779775,-0.41233 0,-0.20249 -0.0073,-0.7402 -0.01143,-1.45311 -2.3550541,0.51619 -2.8519488,-1.14571 -2.8519488,-1.14571 -0.3851451,-0.98728 -0.9402532,-1.25009 -0.9402532,-1.25009 -0.7687311,-0.52983 0.058213,-0.51935 0.058213,-0.51935 0.8498144,0.0604 1.2968114,0.8808 1.2968114,0.8808 0.7552176,1.3057 1.9818608,0.92851 2.4642026,0.70976 0.07692,-0.55187 0.295226,-0.92852 0.537436,-1.14202 -1.8799873,-0.21561 -3.8566504,-0.94899 -3.8566504,-4.22348 0,-0.93272 0.3300502,-1.69546 0.8716444,-2.29298 -0.087321,-0.21612 -0.3778685,-1.08484 0.082643,-2.26149 0,0 0.7110374,-0.22978 2.328544,0.87606 0.675173,-0.18991 1.399725,-0.28433 2.119598,-0.28749 0.718834,0.003 1.4433862,0.0976 2.1195992,0.28749 1.616467,-1.10584 2.325944,-0.87606 2.325944,-0.87606 0.462071,1.17665 0.171523,2.04537 0.0842,2.26149 0.542634,0.59752 0.870605,1.36026 0.870605,2.29298 0,3.28289 -1.979781,4.00524 -3.866005,4.21665 0.304062,0.26387 0.574858,0.78531 0.574858,1.58268 0,1.14204 -0.01046,2.06374 -0.01046,2.34387 0,0.22872 0.152291,0.49469 0.582137,0.41128 3.361834,-1.13259 5.785494,-4.3331 5.785494,-8.10753 0,-4.71972 -3.791161,-8.54555 -8.4674792,-8.54555"
       style="fill:#ffffff;fill-opacity:1;fill-rule:evenodd;stroke:none;stroke-width:0.52217108"
       id="path198"
       inkscape:connector-curvature="0" />
  </g>
</svg>
